{
  "accessors": [
    {
      "bufferView": 2,
      "componentType": 5126,
      "count": 116,
      "max": [
        300.0,
        305.0000305175781,
        50.0
      ],
      "min": [
        -300.0,
        -305.0000305175781,
        -44.36564636230469
      ],
      "type": "VEC3"
    },
    {
      "bufferView": 2,
      "byteOffset": 1392,
      "componentType": 5126,
      "count": 116,
      "max": [
        0.928476870059967,
        0.9999546408653259,
        0.9284766912460327
      ],
      "min": [
        -0.9284768104553223,
        -0.9999546408653259,
        -1.0
      ],
      "type": "VEC3"
    },
    {
      "bufferView": 3,
      "componentType": 5126,
      "count": 116,
      "max": [
        0.15539942681789398,
        0.9284766912460327,
        0.9999545812606812,
        1.0
      ],
      "min": [
        -0.1554364413022995,
        -1.0,
        -0.9999545812606812,
        1.0
      ],
      "type": "VEC4"
    },
    {
      "bufferView": 1,
      "componentType": 5126,
      "count": 116,
      "max": [
        0.9930835962295532,
        0.9924913048744202
      ],
      "min": [
        0.006916389800608158,
        0.10854800045490265
      ],
      "type": "VEC2"
    },
    {
      "bufferView": 0,
      "componentType": 5125,
      "count": 174,
      "type": "SCALAR"
    },
    {
      "bufferView": 2,
      "byteOffset": 2784,
      "componentType": 5126,
      "count": 116,
      "max": [
        300.0,
        300.0000305175781,
        60.00000762939453
      ],
      "min": [
        -300.0,
        -300.0000305175781,
        49.99998474121094
      ],
      "type": "VEC3"
    },
    {
      "bufferView": 2,
      "byteOffset": 4176,
      "componentType": 5126,
      "count": 116,
      "max": [
        0.9284766912460327,
        0.9284767508506775,
        1.0
      ],
      "min": [
        -0.9284766912460327,
        -0.9284767508506775,
        0.3713906705379486
      ],
      "type": "VEC3"
    },
    {
      "bufferView": 3,
      "byteOffset": 1856,
      "componentType": 5126,
      "count": 116,
      "max": [
        0.19526584446430206,
        1.0,
        0.9110550880432129,
        1.0
      ],
      "min": [
        -0.19526584446430206,
        -1.0,
        -0.9111030101776123,
        1.0
      ],
      "type": "VEC4"
    },
    {
      "bufferView": 1,
      "byteOffset": 928,
      "componentType": 5126,
      "count": 116,
      "max": [
        0.996370255947113,
        0.9903733730316162
      ],
      "min": [
        0.004180701449513435,
        0.010466240346431732
      ],
      "type": "VEC2"
    },
    {
      "bufferView": 0,
      "byteOffset": 696,
      "componentType": 5125,
      "count": 198,
      "type": "SCALAR"
    }
  ],
  "asset": {
    "extras": {
      "author": "inuhitman (https://sketchfab.com/inuhitman)",
      "license": "CC-BY-NC-4.0 (http://creativecommons.org/licenses/by-nc/4.0/)",
      "source": "https://sketchfab.com/3d-models/scifi-platform-4ff5b4ef19d0408687c98b506fe83985",
      "title": "Scifi Platform"
    },
    "generator": "Sketchfab-12.67.0",
    "version": "2.0"
  },
  "bufferViews": [
    {
      "buffer": 0,
      "byteLength": 1488,
      "name": "floatBufferViews",
      "target": 34963
    },
    {
      "buffer": 0,
      "byteLength": 1856,
      "byteOffset": 1488,
      "byteStride": 8,
      "name": "floatBufferViews",
      "target": 34962
    },
    {
      "buffer": 0,
      "byteLength": 5568,
      "byteOffset": 3344,
      "byteStride": 12,
      "name": "floatBufferViews",
      "target": 34962
    },
    {
      "buffer": 0,
      "byteLength": 3712,
      "byteOffset": 8912,
      "byteStride": 16,
      "name": "floatBufferViews",
      "target": 34962
    }
  ],
  "buffers": [
    {
      "byteLength": 12624,
      "uri": "scene.bin"
    }
  ],
  "images": [
    {
      "uri": "textures/PlatformBasis6x6_baseColor.png"
    },
    {
      "uri": "textures/PlatformBasis6x6_metallicRoughness.png"
    },
    {
      "uri": "textures/PlatformBasis6x6_normal.png"
    },
    {
      "uri": "textures/PlatformFloor6x6_baseColor.png"
    },
    {
      "uri": "textures/PlatformFloor6x6_metallicRoughness.png"
    },
    {
      "uri": "textures/PlatformFloor6x6_normal.png"
    }
  ],
  "materials": [
    {
      "doubleSided": true,
      "name": "PlatformBasis6x6",
      "normalTexture": {
        "index": 2
      },
      "pbrMetallicRoughness": {
        "baseColorTexture": {
          "index": 0
        },
        "metallicRoughnessTexture": {
          "index": 1
        }
      }
    },
    {
      "doubleSided": true,
      "name": "PlatformFloor6x6",
      "normalTexture": {
        "index": 5
      },
      "pbrMetallicRoughness": {
        "baseColorTexture": {
          "index": 3
        },
        "metallicRoughnessTexture": {
          "index": 4
        }
      }
    }
  ],
  "meshes": [
    {
      "name": "Platform6x6_PlatformBasis6x6_0",
      "primitives": [
        {
          "attributes": {
            "NORMAL": 1,
            "POSITION": 0,
            "TANGENT": 2,
            "TEXCOORD_0": 3
          },
          "indices": 4,
          "material": 0,
          "mode": 4
        }
      ]
    },
    {
      "name": "Platform6x6_PlatformFloor6x6_0",
      "primitives": [
        {
          "attributes": {
            "NORMAL": 6,
            "POSITION": 5,
            "TANGENT": 7,
            "TEXCOORD_0": 8
          },
          "indices": 9,
          "material": 1,
          "mode": 4
        }
      ]
    }
  ],
  "nodes": [
    {
      "children": [
        1
      ],
      "matrix": [
        1.0,
        0.0,
        0.0,
        0.0,
        0.0,
        -5.053215392444312e-16,
        1.0,
        0.0,
        0.0,
        -1.0,
        -5.053215392444312e-16,
        0.0,
        0.0,
        84.36378479003906,
        -0.039916992187481265,
        1.0
      ],
      "name": "Sketchfab_model"
    },
    {
      "children": [
        2
      ],
      "matrix": [
        1.0,
        0.0,
        0.0,
        0.0,
        0.0,
        -1.0,
        0.0,
        0.0,
        0.0,
        0.0,
        -1.0,
        0.0,
        0.0,
        0.0,
        0.0,
        1.0
      ],
      "name": "c61d33fc78ba4333bc636b53115d6787.fbx"
    },
    {
      "children": [
        3
      ],
      "name": "RootNode"
    },
    {
      "children": [
        4
      ],
      "name": "Platform6x6"
    },
    {
      "children": [
        5,
        6
      ],
      "matrix": [
        1.0,
        0.0,
        -0.0,
        0.0,
        0.0,
        1.0,
        0.0,
        0.0,
        0.0,
        0.0,
        1.0,
        0.0,
        0.0,
        0.0,
        -50.0,
        1.0
      ],
      "name": "Object_4"
    },
    {
      "mesh": 0,
      "name": "Platform6x6_PlatformBasis6x6_0"
    },
    {
      "mesh": 1,
      "name": "Platform6x6_PlatformFloor6x6_0"
    }
  ],
  "samplers": [
    {
      "magFilter": 9729,
      "minFilter": 9987,
      "wrapS": 10497,
      "wrapT": 10497
    }
  ],
  "scene": 0,
  "scenes": [
    {
      "name": "Sketchfab_Scene",
      "nodes": [
        0
      ]
    }
  ],
  "textures": [
    {
      "sampler": 0,
      "source": 0
    },
    {
      "sampler": 0,
      "source": 1
    },
    {
      "sampler": 0,
      "source": 2
    },
    {
      "sampler": 0,
      "source": 3
    },
    {
      "sampler": 0,
      "source": 4
    },
    {
      "sampler": 0,
      "source": 5
    }
  ]
}
